<?xml version="1.0" standalone="no"?>
<!DOCTYPE svg PUBLIC "-//W3C//DTD SVG 20010904//EN"
 "http://www.w3.org/TR/2001/REC-SVG-20010904/DTD/svg10.dtd">
<svg version="1.0" xmlns="http://www.w3.org/2000/svg"
 width="512.000000pt" height="512.000000pt" viewBox="0 0 512.000000 512.000000"
 preserveAspectRatio="xMidYMid meet">
<metadata>
Created by potrace 1.11, written by Peter Selinger 2001-2013
</metadata>
<g transform="translate(0.000000,512.000000) scale(0.100000,-0.100000)"
fill="#000000" stroke="none">
<path d="M3472 3773 c-14 -5 -95 -105 -976 -1203 -307 -382 -565 -702 -573
-710 -12 -13 -13 93 -11 775 3 694 5 796 20 837 38 112 90 144 262 162 l111
11 0 34 0 34 -560 0 -560 0 -3 -35 -3 -35 91 -7 c170 -14 241 -52 269 -146 25
-85 31 -292 31 -1208 l0 -932 27 -11 c45 -17 72 5 188 150 61 76 407 507 770
959 l660 821 3 -672 c3 -687 -4 -898 -33 -977 -33 -94 -90 -126 -248 -142
-125 -12 -148 -26 -114 -71 11 -15 38 -16 290 -9 153 4 401 5 550 0 150 -4
276 -3 280 1 5 5 7 21 5 37 -3 28 -5 29 -78 37 -177 18 -228 41 -267 117 -12
25 -27 77 -33 115 -6 43 -10 459 -10 1061 l0 991 -25 11 c-27 13 -42 14 -63 5z"/>
</g>
</svg>
